<svg xmlns="http://www.w3.org/2000/svg" viewBox="0 0 900 450" fill="none">
  <!-- Sun circle -->
  <circle cx="450" cy="240" r="155" fill="#FFC906"/>

  <!-- LEFT BULL (facing right) -->
  <g fill="#C8102E">
    <!-- Body -->
    <path d="
      M 88,195
      C 72,178 55,148 62,115
      C 68,88 88,72 108,65
      C 132,57 158,62 178,58
      C 205,53 228,44 255,42
      C 288,39 318,42 345,52
      C 372,62 392,80 408,102
      C 422,120 428,142 424,162
      C 420,178 410,190 398,198
      C 382,208 362,210 342,208
      C 318,205 298,196 278,192
      C 255,188 232,190 210,196
      C 188,202 168,212 148,218
      C 128,224 105,222 90,210
      Z
    "/>
    <!-- Head -->
    <path d="
      M 398,198
      C 414,190 430,178 442,162
      C 454,146 458,126 452,108
      C 446,90 432,76 416,68
      C 402,61 386,60 372,66
      C 358,72 348,84 344,98
      C 340,112 344,128 352,140
      C 360,152 372,160 384,166
      C 394,172 402,180 406,190
      Z
    "/>
    <!-- Left Horn (back horn) -->
    <path d="
      M 372,66
      C 368,52 360,36 348,24
      C 338,14 324,8 314,14
      C 306,20 304,34 310,46
      C 316,58 328,66 340,70
      Z
    "/>
    <!-- Right Horn (front horn) -->
    <path d="
      M 416,68
      C 418,52 414,34 406,22
      C 398,12 384,8 376,16
      C 368,24 368,40 374,52
      C 380,62 392,68 402,68
      Z
    "/>
    <!-- Front leg (left) -->
    <path d="
      M 330,210
      C 326,228 320,248 318,268
      C 316,284 318,300 316,316
      C 314,330 308,342 312,354
      C 316,364 328,368 340,364
      C 352,360 358,348 358,336
      C 358,322 352,310 348,296
      C 344,280 342,264 344,248
      C 346,234 350,220 348,208
      Z
    "/>
    <!-- Front leg (right) -->
    <path d="
      M 280,208
      C 276,226 270,248 268,268
      C 266,284 268,300 266,316
      C 264,330 258,344 262,356
      C 266,366 278,370 290,366
      C 302,362 308,350 308,336
      C 308,322 302,310 298,296
      C 294,280 292,264 294,248
      C 296,232 300,218 298,206
      Z
    "/>
    <!-- Back leg (left) -->
    <path d="
      M 148,220
      C 144,238 138,258 136,278
      C 134,294 136,310 134,326
      C 132,340 126,352 130,364
      C 134,374 146,378 158,374
      C 170,370 176,358 176,344
      C 176,330 170,318 166,304
      C 162,288 160,272 162,256
      C 164,240 168,226 166,214
      Z
    "/>
    <!-- Back leg (right) -->
    <path d="
      M 108,212
      C 104,230 98,252 96,272
      C 94,288 96,304 94,320
      C 92,334 86,346 90,358
      C 94,368 106,372 118,368
      C 130,364 136,352 136,338
      C 136,324 130,312 126,298
      C 122,282 120,266 122,250
      C 124,234 128,220 126,208
      Z
    "/>
    <!-- Tail -->
    <path d="
      M 88,195
      C 72,182 56,166 46,148
      C 36,130 32,108 38,90
      C 44,74 56,62 64,52
      C 72,42 76,36 72,28
      C 68,20 56,18 50,24
      C 42,32 40,46 42,60
      C 28,56 16,46 18,32
      C 20,18 36,10 50,12
      C 64,14 74,26 78,40
      C 82,54 78,68 74,80
      C 66,96 56,112 58,130
      C 60,148 72,162 82,172
      Z
    "/>
    <!-- Hoof details - front left -->
    <path d="M 312,354 C 308,362 312,374 322,376 C 332,378 342,372 344,362 C 340,366 328,368 320,364 Z" opacity="0.7"/>
    <!-- Hoof details - back left -->
    <path d="M 130,364 C 126,372 130,384 140,386 C 150,388 160,382 162,372 C 158,376 146,378 138,374 Z" opacity="0.7"/>
  </g>

  <!-- RIGHT BULL (mirror of left, facing left) -->
  <g fill="#C8102E" transform="translate(900,0) scale(-1,1)">
    <!-- Body -->
    <path d="
      M 88,195
      C 72,178 55,148 62,115
      C 68,88 88,72 108,65
      C 132,57 158,62 178,58
      C 205,53 228,44 255,42
      C 288,39 318,42 345,52
      C 372,62 392,80 408,102
      C 422,120 428,142 424,162
      C 420,178 410,190 398,198
      C 382,208 362,210 342,208
      C 318,205 298,196 278,192
      C 255,188 232,190 210,196
      C 188,202 168,212 148,218
      C 128,224 105,222 90,210
      Z
    "/>
    <!-- Head -->
    <path d="
      M 398,198
      C 414,190 430,178 442,162
      C 454,146 458,126 452,108
      C 446,90 432,76 416,68
      C 402,61 386,60 372,66
      C 358,72 348,84 344,98
      C 340,112 344,128 352,140
      C 360,152 372,160 384,166
      C 394,172 402,180 406,190
      Z
    "/>
    <!-- Left Horn -->
    <path d="
      M 372,66
      C 368,52 360,36 348,24
      C 338,14 324,8 314,14
      C 306,20 304,34 310,46
      C 316,58 328,66 340,70
      Z
    "/>
    <!-- Right Horn -->
    <path d="
      M 416,68
      C 418,52 414,34 406,22
      C 398,12 384,8 376,16
      C 368,24 368,40 374,52
      C 380,62 392,68 402,68
      Z
    "/>
    <!-- Front leg (left) -->
    <path d="
      M 330,210
      C 326,228 320,248 318,268
      C 316,284 318,300 316,316
      C 314,330 308,342 312,354
      C 316,364 328,368 340,364
      C 352,360 358,348 358,336
      C 358,322 352,310 348,296
      C 344,280 342,264 344,248
      C 346,234 350,220 348,208
      Z
    "/>
    <!-- Front leg (right) -->
    <path d="
      M 280,208
      C 276,226 270,248 268,268
      C 266,284 268,300 266,316
      C 264,330 258,344 262,356
      C 266,366 278,370 290,366
      C 302,362 308,350 308,336
      C 308,322 302,310 298,296
      C 294,280 292,264 294,248
      C 296,232 300,218 298,206
      Z
    "/>
    <!-- Back leg (left) -->
    <path d="
      M 148,220
      C 144,238 138,258 136,278
      C 134,294 136,310 134,326
      C 132,340 126,352 130,364
      C 134,374 146,378 158,374
      C 170,370 176,358 176,344
      C 176,330 170,318 166,304
      C 162,288 160,272 162,256
      C 164,240 168,226 166,214
      Z
    "/>
    <!-- Back leg (right) -->
    <path d="
      M 108,212
      C 104,230 98,252 96,272
      C 94,288 96,304 94,320
      C 92,334 86,346 90,358
      C 94,368 106,372 118,368
      C 130,364 136,352 136,338
      C 136,324 130,312 126,298
      C 122,282 120,266 122,250
      C 124,234 128,220 126,208
      Z
    "/>
    <!-- Tail -->
    <path d="
      M 88,195
      C 72,182 56,166 46,148
      C 36,130 32,108 38,90
      C 44,74 56,62 64,52
      C 72,42 76,36 72,28
      C 68,20 56,18 50,24
      C 42,32 40,46 42,60
      C 28,56 16,46 18,32
      C 20,18 36,10 50,12
      C 64,14 74,26 78,40
      C 82,54 78,68 74,80
      C 66,96 56,112 58,130
      C 60,148 72,162 82,172
      Z
    "/>
  </g>
</svg>
